<mxfile host="app.diagrams.net" modified="2023-12-02T11:54:11.506Z" agent="Mozilla/5.0 (X11; Linux x86_64) AppleWebKit/537.36 (KHTML, like Gecko) Chrome/119.0.0.0 Safari/537.36" etag="8XO1BuT1amjQ7ahr6Y1m" version="22.1.5" type="device">
  <diagram name="Page-1" id="16e2658f-23c8-b752-8be9-c03fbebb8bbe">
    <mxGraphModel dx="1593" dy="788" grid="1" gridSize="10" guides="1" tooltips="1" connect="1" arrows="1" fold="1" page="1" pageScale="1" pageWidth="1100" pageHeight="850" background="none" math="0" shadow="0">
      <root>
        <mxCell id="0" />
        <mxCell id="1" parent="0" />
        <mxCell id="3GCRCCxwuiFzwx2zmOPe-1" value="" style="pointerEvents=1;verticalLabelPosition=bottom;shadow=0;dashed=0;align=center;html=1;verticalAlign=top;shape=mxgraph.electrical.signal_sources.dc_source_1;" vertex="1" parent="1">
          <mxGeometry x="230" y="320" width="70" height="75" as="geometry" />
        </mxCell>
        <mxCell id="3GCRCCxwuiFzwx2zmOPe-2" value="" style="endArrow=none;html=1;rounded=0;" edge="1" parent="1">
          <mxGeometry width="50" height="50" relative="1" as="geometry">
            <mxPoint x="250" y="350" as="sourcePoint" />
            <mxPoint x="290" y="350" as="targetPoint" />
          </mxGeometry>
        </mxCell>
        <mxCell id="3GCRCCxwuiFzwx2zmOPe-3" value="" style="endArrow=none;html=1;rounded=0;" edge="1" parent="1">
          <mxGeometry width="50" height="50" relative="1" as="geometry">
            <mxPoint x="250" y="370" as="sourcePoint" />
            <mxPoint x="290" y="370" as="targetPoint" />
          </mxGeometry>
        </mxCell>
        <mxCell id="3GCRCCxwuiFzwx2zmOPe-4" value="" style="endArrow=classic;html=1;rounded=0;strokeWidth=2;" edge="1" parent="1">
          <mxGeometry width="50" height="50" relative="1" as="geometry">
            <mxPoint x="200" y="322.5" as="sourcePoint" />
            <mxPoint x="200" y="392.5" as="targetPoint" />
          </mxGeometry>
        </mxCell>
        <mxCell id="3GCRCCxwuiFzwx2zmOPe-5" value="&lt;font style=&quot;font-size: 20px;&quot;&gt;U&lt;/font&gt;" style="text;html=1;strokeColor=none;fillColor=none;align=center;verticalAlign=middle;whiteSpace=wrap;rounded=0;" vertex="1" parent="1">
          <mxGeometry x="150" y="342.5" width="60" height="30" as="geometry" />
        </mxCell>
        <mxCell id="3GCRCCxwuiFzwx2zmOPe-6" value="" style="pointerEvents=1;verticalLabelPosition=bottom;shadow=0;dashed=0;align=center;html=1;verticalAlign=top;shape=mxgraph.electrical.resistors.resistor_1;" vertex="1" parent="1">
          <mxGeometry x="330" y="140" width="100" height="20" as="geometry" />
        </mxCell>
        <mxCell id="3GCRCCxwuiFzwx2zmOPe-17" style="edgeStyle=orthogonalEdgeStyle;rounded=0;orthogonalLoop=1;jettySize=auto;html=1;exitX=1;exitY=0.5;exitDx=0;exitDy=0;exitPerimeter=0;endArrow=oval;endFill=1;" edge="1" parent="1" source="3GCRCCxwuiFzwx2zmOPe-7">
          <mxGeometry relative="1" as="geometry">
            <mxPoint x="500" y="150" as="targetPoint" />
          </mxGeometry>
        </mxCell>
        <mxCell id="3GCRCCxwuiFzwx2zmOPe-7" value="" style="pointerEvents=1;verticalLabelPosition=bottom;shadow=0;dashed=0;align=center;html=1;verticalAlign=top;shape=mxgraph.electrical.resistors.resistor_1;rotation=-90;" vertex="1" parent="1">
          <mxGeometry x="450" y="260" width="100" height="20" as="geometry" />
        </mxCell>
        <mxCell id="3GCRCCxwuiFzwx2zmOPe-8" value="" style="pointerEvents=1;verticalLabelPosition=bottom;shadow=0;dashed=0;align=center;html=1;verticalAlign=top;shape=mxgraph.electrical.resistors.resistor_1;rotation=-90;" vertex="1" parent="1">
          <mxGeometry x="450" y="440" width="100" height="20" as="geometry" />
        </mxCell>
        <mxCell id="3GCRCCxwuiFzwx2zmOPe-9" style="edgeStyle=orthogonalEdgeStyle;rounded=0;orthogonalLoop=1;jettySize=auto;html=1;exitX=1;exitY=0.5;exitDx=0;exitDy=0;exitPerimeter=0;entryX=0;entryY=0.5;entryDx=0;entryDy=0;entryPerimeter=0;endArrow=none;endFill=0;" edge="1" parent="1" source="3GCRCCxwuiFzwx2zmOPe-8" target="3GCRCCxwuiFzwx2zmOPe-7">
          <mxGeometry relative="1" as="geometry" />
        </mxCell>
        <mxCell id="3GCRCCxwuiFzwx2zmOPe-10" value="" style="pointerEvents=1;verticalLabelPosition=bottom;shadow=0;dashed=0;align=center;html=1;verticalAlign=top;shape=mxgraph.electrical.resistors.resistor_1;rotation=-90;" vertex="1" parent="1">
          <mxGeometry x="590" y="260" width="100" height="20" as="geometry" />
        </mxCell>
        <mxCell id="3GCRCCxwuiFzwx2zmOPe-14" style="edgeStyle=orthogonalEdgeStyle;rounded=0;orthogonalLoop=1;jettySize=auto;html=1;exitX=0;exitY=0.5;exitDx=0;exitDy=0;exitPerimeter=0;endArrow=oval;endFill=1;" edge="1" parent="1" source="3GCRCCxwuiFzwx2zmOPe-11">
          <mxGeometry relative="1" as="geometry">
            <mxPoint x="500" y="520" as="targetPoint" />
            <Array as="points">
              <mxPoint x="640" y="520" />
            </Array>
          </mxGeometry>
        </mxCell>
        <mxCell id="3GCRCCxwuiFzwx2zmOPe-11" value="" style="pointerEvents=1;verticalLabelPosition=bottom;shadow=0;dashed=0;align=center;html=1;verticalAlign=top;shape=mxgraph.electrical.resistors.resistor_1;rotation=-90;" vertex="1" parent="1">
          <mxGeometry x="590" y="440" width="100" height="20" as="geometry" />
        </mxCell>
        <mxCell id="3GCRCCxwuiFzwx2zmOPe-12" style="edgeStyle=orthogonalEdgeStyle;rounded=0;orthogonalLoop=1;jettySize=auto;html=1;exitX=1;exitY=0.5;exitDx=0;exitDy=0;exitPerimeter=0;entryX=0;entryY=0.5;entryDx=0;entryDy=0;entryPerimeter=0;endArrow=none;endFill=0;" edge="1" parent="1" source="3GCRCCxwuiFzwx2zmOPe-11" target="3GCRCCxwuiFzwx2zmOPe-10">
          <mxGeometry relative="1" as="geometry" />
        </mxCell>
        <mxCell id="3GCRCCxwuiFzwx2zmOPe-13" style="edgeStyle=orthogonalEdgeStyle;rounded=0;orthogonalLoop=1;jettySize=auto;html=1;exitX=0;exitY=0.5;exitDx=0;exitDy=0;exitPerimeter=0;entryX=0.58;entryY=0.935;entryDx=0;entryDy=0;entryPerimeter=0;endArrow=none;endFill=0;" edge="1" parent="1" source="3GCRCCxwuiFzwx2zmOPe-8" target="3GCRCCxwuiFzwx2zmOPe-1">
          <mxGeometry relative="1" as="geometry" />
        </mxCell>
        <mxCell id="3GCRCCxwuiFzwx2zmOPe-15" style="edgeStyle=orthogonalEdgeStyle;rounded=0;orthogonalLoop=1;jettySize=auto;html=1;exitX=0;exitY=0.5;exitDx=0;exitDy=0;exitPerimeter=0;entryX=0.58;entryY=0.135;entryDx=0;entryDy=0;entryPerimeter=0;endArrow=none;endFill=0;" edge="1" parent="1" source="3GCRCCxwuiFzwx2zmOPe-6" target="3GCRCCxwuiFzwx2zmOPe-1">
          <mxGeometry relative="1" as="geometry" />
        </mxCell>
        <mxCell id="3GCRCCxwuiFzwx2zmOPe-16" style="edgeStyle=orthogonalEdgeStyle;rounded=0;orthogonalLoop=1;jettySize=auto;html=1;exitX=1;exitY=0.5;exitDx=0;exitDy=0;exitPerimeter=0;entryX=1;entryY=0.5;entryDx=0;entryDy=0;entryPerimeter=0;endArrow=none;endFill=0;" edge="1" parent="1" source="3GCRCCxwuiFzwx2zmOPe-6" target="3GCRCCxwuiFzwx2zmOPe-10">
          <mxGeometry relative="1" as="geometry" />
        </mxCell>
        <mxCell id="3GCRCCxwuiFzwx2zmOPe-19" style="edgeStyle=orthogonalEdgeStyle;rounded=0;orthogonalLoop=1;jettySize=auto;html=1;exitX=1;exitY=0.5;exitDx=0;exitDy=0;exitPerimeter=0;endArrow=oval;endFill=1;" edge="1" parent="1" source="3GCRCCxwuiFzwx2zmOPe-18">
          <mxGeometry relative="1" as="geometry">
            <mxPoint x="640" y="370" as="targetPoint" />
            <Array as="points">
              <mxPoint x="760" y="370" />
              <mxPoint x="640" y="370" />
            </Array>
          </mxGeometry>
        </mxCell>
        <mxCell id="3GCRCCxwuiFzwx2zmOPe-20" style="edgeStyle=orthogonalEdgeStyle;rounded=0;orthogonalLoop=1;jettySize=auto;html=1;exitX=0;exitY=0.5;exitDx=0;exitDy=0;exitPerimeter=0;endArrow=oval;endFill=1;" edge="1" parent="1" source="3GCRCCxwuiFzwx2zmOPe-18">
          <mxGeometry relative="1" as="geometry">
            <mxPoint x="640" y="520" as="targetPoint" />
            <Array as="points">
              <mxPoint x="760" y="520" />
            </Array>
          </mxGeometry>
        </mxCell>
        <mxCell id="3GCRCCxwuiFzwx2zmOPe-18" value="" style="pointerEvents=1;verticalLabelPosition=bottom;shadow=0;dashed=0;align=center;html=1;verticalAlign=top;shape=mxgraph.electrical.resistors.resistor_1;rotation=-90;" vertex="1" parent="1">
          <mxGeometry x="710" y="440" width="100" height="20" as="geometry" />
        </mxCell>
        <mxCell id="3GCRCCxwuiFzwx2zmOPe-21" value="&lt;font style=&quot;font-size: 20px;&quot;&gt;R&lt;/font&gt;" style="text;html=1;strokeColor=none;fillColor=none;align=center;verticalAlign=middle;whiteSpace=wrap;rounded=0;" vertex="1" parent="1">
          <mxGeometry x="345" y="100" width="60" height="30" as="geometry" />
        </mxCell>
        <mxCell id="3GCRCCxwuiFzwx2zmOPe-22" value="1" style="text;html=1;strokeColor=none;fillColor=none;align=center;verticalAlign=middle;whiteSpace=wrap;rounded=0;" vertex="1" parent="1">
          <mxGeometry x="355" y="110" width="60" height="30" as="geometry" />
        </mxCell>
        <mxCell id="3GCRCCxwuiFzwx2zmOPe-23" value="&lt;font style=&quot;font-size: 20px;&quot;&gt;R&lt;/font&gt;" style="text;html=1;strokeColor=none;fillColor=none;align=center;verticalAlign=middle;whiteSpace=wrap;rounded=0;" vertex="1" parent="1">
          <mxGeometry x="490" y="250" width="60" height="30" as="geometry" />
        </mxCell>
        <mxCell id="3GCRCCxwuiFzwx2zmOPe-24" value="2" style="text;html=1;strokeColor=none;fillColor=none;align=center;verticalAlign=middle;whiteSpace=wrap;rounded=0;" vertex="1" parent="1">
          <mxGeometry x="500" y="260" width="60" height="30" as="geometry" />
        </mxCell>
        <mxCell id="3GCRCCxwuiFzwx2zmOPe-25" value="&lt;font style=&quot;font-size: 20px;&quot;&gt;R&lt;/font&gt;" style="text;html=1;strokeColor=none;fillColor=none;align=center;verticalAlign=middle;whiteSpace=wrap;rounded=0;" vertex="1" parent="1">
          <mxGeometry x="490" y="425" width="60" height="30" as="geometry" />
        </mxCell>
        <mxCell id="3GCRCCxwuiFzwx2zmOPe-26" value="3" style="text;html=1;strokeColor=none;fillColor=none;align=center;verticalAlign=middle;whiteSpace=wrap;rounded=0;" vertex="1" parent="1">
          <mxGeometry x="500" y="435" width="60" height="30" as="geometry" />
        </mxCell>
        <mxCell id="3GCRCCxwuiFzwx2zmOPe-27" value="&lt;font style=&quot;font-size: 20px;&quot;&gt;R&lt;/font&gt;" style="text;html=1;strokeColor=none;fillColor=none;align=center;verticalAlign=middle;whiteSpace=wrap;rounded=0;" vertex="1" parent="1">
          <mxGeometry x="630" y="250" width="60" height="30" as="geometry" />
        </mxCell>
        <mxCell id="3GCRCCxwuiFzwx2zmOPe-28" value="4" style="text;html=1;strokeColor=none;fillColor=none;align=center;verticalAlign=middle;whiteSpace=wrap;rounded=0;" vertex="1" parent="1">
          <mxGeometry x="640" y="260" width="60" height="30" as="geometry" />
        </mxCell>
        <mxCell id="3GCRCCxwuiFzwx2zmOPe-29" value="&lt;font style=&quot;font-size: 20px;&quot;&gt;R&lt;/font&gt;" style="text;html=1;strokeColor=none;fillColor=none;align=center;verticalAlign=middle;whiteSpace=wrap;rounded=0;" vertex="1" parent="1">
          <mxGeometry x="630" y="435" width="60" height="30" as="geometry" />
        </mxCell>
        <mxCell id="3GCRCCxwuiFzwx2zmOPe-30" value="5" style="text;html=1;strokeColor=none;fillColor=none;align=center;verticalAlign=middle;whiteSpace=wrap;rounded=0;" vertex="1" parent="1">
          <mxGeometry x="640" y="445" width="60" height="30" as="geometry" />
        </mxCell>
        <mxCell id="3GCRCCxwuiFzwx2zmOPe-31" value="&lt;font style=&quot;font-size: 20px;&quot;&gt;R&lt;/font&gt;" style="text;html=1;strokeColor=none;fillColor=none;align=center;verticalAlign=middle;whiteSpace=wrap;rounded=0;" vertex="1" parent="1">
          <mxGeometry x="750" y="430" width="60" height="30" as="geometry" />
        </mxCell>
        <mxCell id="3GCRCCxwuiFzwx2zmOPe-32" value="6" style="text;html=1;strokeColor=none;fillColor=none;align=center;verticalAlign=middle;whiteSpace=wrap;rounded=0;" vertex="1" parent="1">
          <mxGeometry x="760" y="440" width="60" height="30" as="geometry" />
        </mxCell>
        <mxCell id="3GCRCCxwuiFzwx2zmOPe-33" value="" style="endArrow=classic;html=1;rounded=0;strokeWidth=2;" edge="1" parent="1">
          <mxGeometry width="50" height="50" relative="1" as="geometry">
            <mxPoint x="820" y="385" as="sourcePoint" />
            <mxPoint x="820" y="495" as="targetPoint" />
          </mxGeometry>
        </mxCell>
        <mxCell id="3GCRCCxwuiFzwx2zmOPe-35" value="&lt;font style=&quot;font-size: 20px;&quot;&gt;U&lt;/font&gt;" style="text;html=1;strokeColor=none;fillColor=none;align=center;verticalAlign=middle;whiteSpace=wrap;rounded=0;" vertex="1" parent="1">
          <mxGeometry x="800" y="425" width="60" height="30" as="geometry" />
        </mxCell>
        <mxCell id="3GCRCCxwuiFzwx2zmOPe-36" value="R6" style="text;html=1;strokeColor=none;fillColor=none;align=center;verticalAlign=middle;whiteSpace=wrap;rounded=0;" vertex="1" parent="1">
          <mxGeometry x="814" y="434" width="60" height="30" as="geometry" />
        </mxCell>
        <mxCell id="3GCRCCxwuiFzwx2zmOPe-37" value="&lt;font style=&quot;font-size: 20px;&quot;&gt;I&lt;/font&gt;" style="text;html=1;strokeColor=none;fillColor=none;align=center;verticalAlign=middle;whiteSpace=wrap;rounded=0;" vertex="1" parent="1">
          <mxGeometry x="670" y="320" width="60" height="30" as="geometry" />
        </mxCell>
        <mxCell id="3GCRCCxwuiFzwx2zmOPe-38" value="R6" style="text;html=1;strokeColor=none;fillColor=none;align=center;verticalAlign=middle;whiteSpace=wrap;rounded=0;" vertex="1" parent="1">
          <mxGeometry x="680" y="330" width="60" height="30" as="geometry" />
        </mxCell>
        <mxCell id="3GCRCCxwuiFzwx2zmOPe-39" value="" style="endArrow=block;html=1;rounded=0;strokeWidth=2;endFill=0;" edge="1" parent="1">
          <mxGeometry width="50" height="50" relative="1" as="geometry">
            <mxPoint x="660" y="360" as="sourcePoint" />
            <mxPoint x="750" y="360" as="targetPoint" />
          </mxGeometry>
        </mxCell>
        <mxCell id="3GCRCCxwuiFzwx2zmOPe-116" style="edgeStyle=orthogonalEdgeStyle;rounded=0;orthogonalLoop=1;jettySize=auto;html=1;exitX=0.58;exitY=0.935;exitDx=0;exitDy=0;exitPerimeter=0;endArrow=none;endFill=0;" edge="1" parent="1" source="3GCRCCxwuiFzwx2zmOPe-78">
          <mxGeometry relative="1" as="geometry">
            <mxPoint x="500" y="1080" as="targetPoint" />
            <Array as="points">
              <mxPoint x="271" y="1080" />
            </Array>
          </mxGeometry>
        </mxCell>
        <mxCell id="3GCRCCxwuiFzwx2zmOPe-78" value="" style="pointerEvents=1;verticalLabelPosition=bottom;shadow=0;dashed=0;align=center;html=1;verticalAlign=top;shape=mxgraph.electrical.signal_sources.dc_source_1;" vertex="1" parent="1">
          <mxGeometry x="230" y="880" width="70" height="75" as="geometry" />
        </mxCell>
        <mxCell id="3GCRCCxwuiFzwx2zmOPe-79" value="" style="endArrow=none;html=1;rounded=0;" edge="1" parent="1">
          <mxGeometry width="50" height="50" relative="1" as="geometry">
            <mxPoint x="250" y="910" as="sourcePoint" />
            <mxPoint x="290" y="910" as="targetPoint" />
          </mxGeometry>
        </mxCell>
        <mxCell id="3GCRCCxwuiFzwx2zmOPe-80" value="" style="endArrow=none;html=1;rounded=0;" edge="1" parent="1">
          <mxGeometry width="50" height="50" relative="1" as="geometry">
            <mxPoint x="250" y="930" as="sourcePoint" />
            <mxPoint x="290" y="930" as="targetPoint" />
          </mxGeometry>
        </mxCell>
        <mxCell id="3GCRCCxwuiFzwx2zmOPe-81" value="" style="endArrow=classic;html=1;rounded=0;strokeWidth=2;" edge="1" parent="1">
          <mxGeometry width="50" height="50" relative="1" as="geometry">
            <mxPoint x="200" y="882.5" as="sourcePoint" />
            <mxPoint x="200" y="952.5" as="targetPoint" />
          </mxGeometry>
        </mxCell>
        <mxCell id="3GCRCCxwuiFzwx2zmOPe-82" value="&lt;font style=&quot;font-size: 20px;&quot;&gt;U&lt;/font&gt;" style="text;html=1;strokeColor=none;fillColor=none;align=center;verticalAlign=middle;whiteSpace=wrap;rounded=0;" vertex="1" parent="1">
          <mxGeometry x="150" y="902.5" width="60" height="30" as="geometry" />
        </mxCell>
        <mxCell id="3GCRCCxwuiFzwx2zmOPe-83" value="" style="pointerEvents=1;verticalLabelPosition=bottom;shadow=0;dashed=0;align=center;html=1;verticalAlign=top;shape=mxgraph.electrical.resistors.resistor_1;" vertex="1" parent="1">
          <mxGeometry x="330" y="700" width="100" height="20" as="geometry" />
        </mxCell>
        <mxCell id="3GCRCCxwuiFzwx2zmOPe-84" style="edgeStyle=orthogonalEdgeStyle;rounded=0;orthogonalLoop=1;jettySize=auto;html=1;exitX=1;exitY=0.5;exitDx=0;exitDy=0;exitPerimeter=0;endArrow=oval;endFill=1;" edge="1" parent="1">
          <mxGeometry relative="1" as="geometry">
            <mxPoint x="500" y="710" as="targetPoint" />
            <mxPoint x="500" y="780" as="sourcePoint" />
          </mxGeometry>
        </mxCell>
        <mxCell id="3GCRCCxwuiFzwx2zmOPe-117" style="edgeStyle=orthogonalEdgeStyle;rounded=0;orthogonalLoop=1;jettySize=auto;html=1;exitX=0;exitY=0.5;exitDx=0;exitDy=0;exitPerimeter=0;endArrow=none;endFill=0;" edge="1" parent="1" source="3GCRCCxwuiFzwx2zmOPe-86">
          <mxGeometry relative="1" as="geometry">
            <mxPoint x="500" y="1080" as="targetPoint" />
          </mxGeometry>
        </mxCell>
        <mxCell id="3GCRCCxwuiFzwx2zmOPe-86" value="" style="pointerEvents=1;verticalLabelPosition=bottom;shadow=0;dashed=0;align=center;html=1;verticalAlign=top;shape=mxgraph.electrical.resistors.resistor_1;rotation=-90;" vertex="1" parent="1">
          <mxGeometry x="450" y="877.5" width="100" height="20" as="geometry" />
        </mxCell>
        <mxCell id="3GCRCCxwuiFzwx2zmOPe-87" style="edgeStyle=orthogonalEdgeStyle;rounded=0;orthogonalLoop=1;jettySize=auto;html=1;exitX=1;exitY=0.5;exitDx=0;exitDy=0;exitPerimeter=0;endArrow=none;endFill=0;" edge="1" parent="1" source="3GCRCCxwuiFzwx2zmOPe-86">
          <mxGeometry relative="1" as="geometry">
            <mxPoint x="500" y="780" as="targetPoint" />
          </mxGeometry>
        </mxCell>
        <mxCell id="3GCRCCxwuiFzwx2zmOPe-88" value="" style="pointerEvents=1;verticalLabelPosition=bottom;shadow=0;dashed=0;align=center;html=1;verticalAlign=top;shape=mxgraph.electrical.resistors.resistor_1;rotation=-90;" vertex="1" parent="1">
          <mxGeometry x="590" y="820" width="100" height="20" as="geometry" />
        </mxCell>
        <mxCell id="3GCRCCxwuiFzwx2zmOPe-89" style="edgeStyle=orthogonalEdgeStyle;rounded=0;orthogonalLoop=1;jettySize=auto;html=1;exitX=0;exitY=0.5;exitDx=0;exitDy=0;exitPerimeter=0;endArrow=oval;endFill=1;" edge="1" parent="1" source="3GCRCCxwuiFzwx2zmOPe-90">
          <mxGeometry relative="1" as="geometry">
            <mxPoint x="500" y="1080" as="targetPoint" />
            <Array as="points">
              <mxPoint x="640" y="1080" />
            </Array>
          </mxGeometry>
        </mxCell>
        <mxCell id="3GCRCCxwuiFzwx2zmOPe-90" value="" style="pointerEvents=1;verticalLabelPosition=bottom;shadow=0;dashed=0;align=center;html=1;verticalAlign=top;shape=mxgraph.electrical.resistors.resistor_1;rotation=-90;" vertex="1" parent="1">
          <mxGeometry x="590" y="1000" width="100" height="20" as="geometry" />
        </mxCell>
        <mxCell id="3GCRCCxwuiFzwx2zmOPe-91" style="edgeStyle=orthogonalEdgeStyle;rounded=0;orthogonalLoop=1;jettySize=auto;html=1;exitX=1;exitY=0.5;exitDx=0;exitDy=0;exitPerimeter=0;entryX=0;entryY=0.5;entryDx=0;entryDy=0;entryPerimeter=0;endArrow=none;endFill=0;" edge="1" parent="1" source="3GCRCCxwuiFzwx2zmOPe-90" target="3GCRCCxwuiFzwx2zmOPe-88">
          <mxGeometry relative="1" as="geometry" />
        </mxCell>
        <mxCell id="3GCRCCxwuiFzwx2zmOPe-93" style="edgeStyle=orthogonalEdgeStyle;rounded=0;orthogonalLoop=1;jettySize=auto;html=1;exitX=0;exitY=0.5;exitDx=0;exitDy=0;exitPerimeter=0;entryX=0.58;entryY=0.135;entryDx=0;entryDy=0;entryPerimeter=0;endArrow=none;endFill=0;" edge="1" parent="1" source="3GCRCCxwuiFzwx2zmOPe-83" target="3GCRCCxwuiFzwx2zmOPe-78">
          <mxGeometry relative="1" as="geometry" />
        </mxCell>
        <mxCell id="3GCRCCxwuiFzwx2zmOPe-94" style="edgeStyle=orthogonalEdgeStyle;rounded=0;orthogonalLoop=1;jettySize=auto;html=1;exitX=1;exitY=0.5;exitDx=0;exitDy=0;exitPerimeter=0;entryX=1;entryY=0.5;entryDx=0;entryDy=0;entryPerimeter=0;endArrow=none;endFill=0;" edge="1" parent="1" source="3GCRCCxwuiFzwx2zmOPe-83" target="3GCRCCxwuiFzwx2zmOPe-88">
          <mxGeometry relative="1" as="geometry" />
        </mxCell>
        <mxCell id="3GCRCCxwuiFzwx2zmOPe-95" style="edgeStyle=orthogonalEdgeStyle;rounded=0;orthogonalLoop=1;jettySize=auto;html=1;exitX=1;exitY=0.5;exitDx=0;exitDy=0;exitPerimeter=0;endArrow=oval;endFill=1;" edge="1" parent="1" source="3GCRCCxwuiFzwx2zmOPe-97">
          <mxGeometry relative="1" as="geometry">
            <mxPoint x="640" y="930" as="targetPoint" />
            <Array as="points">
              <mxPoint x="760" y="930" />
              <mxPoint x="640" y="930" />
            </Array>
          </mxGeometry>
        </mxCell>
        <mxCell id="3GCRCCxwuiFzwx2zmOPe-96" style="edgeStyle=orthogonalEdgeStyle;rounded=0;orthogonalLoop=1;jettySize=auto;html=1;exitX=0;exitY=0.5;exitDx=0;exitDy=0;exitPerimeter=0;endArrow=oval;endFill=1;" edge="1" parent="1" source="3GCRCCxwuiFzwx2zmOPe-97">
          <mxGeometry relative="1" as="geometry">
            <mxPoint x="640" y="1080" as="targetPoint" />
            <Array as="points">
              <mxPoint x="760" y="1080" />
            </Array>
          </mxGeometry>
        </mxCell>
        <mxCell id="3GCRCCxwuiFzwx2zmOPe-97" value="" style="pointerEvents=1;verticalLabelPosition=bottom;shadow=0;dashed=0;align=center;html=1;verticalAlign=top;shape=mxgraph.electrical.resistors.resistor_1;rotation=-90;" vertex="1" parent="1">
          <mxGeometry x="710" y="1000" width="100" height="20" as="geometry" />
        </mxCell>
        <mxCell id="3GCRCCxwuiFzwx2zmOPe-98" value="&lt;font style=&quot;font-size: 20px;&quot;&gt;R&lt;/font&gt;" style="text;html=1;strokeColor=none;fillColor=none;align=center;verticalAlign=middle;whiteSpace=wrap;rounded=0;" vertex="1" parent="1">
          <mxGeometry x="345" y="660" width="60" height="30" as="geometry" />
        </mxCell>
        <mxCell id="3GCRCCxwuiFzwx2zmOPe-99" value="1" style="text;html=1;strokeColor=none;fillColor=none;align=center;verticalAlign=middle;whiteSpace=wrap;rounded=0;" vertex="1" parent="1">
          <mxGeometry x="355" y="670" width="60" height="30" as="geometry" />
        </mxCell>
        <mxCell id="3GCRCCxwuiFzwx2zmOPe-102" value="&lt;font style=&quot;font-size: 20px;&quot;&gt;R&lt;/font&gt;" style="text;html=1;strokeColor=none;fillColor=none;align=center;verticalAlign=middle;whiteSpace=wrap;rounded=0;" vertex="1" parent="1">
          <mxGeometry x="490" y="862.5" width="60" height="30" as="geometry" />
        </mxCell>
        <mxCell id="3GCRCCxwuiFzwx2zmOPe-103" value="23" style="text;html=1;strokeColor=none;fillColor=none;align=center;verticalAlign=middle;whiteSpace=wrap;rounded=0;" vertex="1" parent="1">
          <mxGeometry x="504" y="872.5" width="60" height="30" as="geometry" />
        </mxCell>
        <mxCell id="3GCRCCxwuiFzwx2zmOPe-104" value="&lt;font style=&quot;font-size: 20px;&quot;&gt;R&lt;/font&gt;" style="text;html=1;strokeColor=none;fillColor=none;align=center;verticalAlign=middle;whiteSpace=wrap;rounded=0;" vertex="1" parent="1">
          <mxGeometry x="630" y="810" width="60" height="30" as="geometry" />
        </mxCell>
        <mxCell id="3GCRCCxwuiFzwx2zmOPe-105" value="4" style="text;html=1;strokeColor=none;fillColor=none;align=center;verticalAlign=middle;whiteSpace=wrap;rounded=0;" vertex="1" parent="1">
          <mxGeometry x="640" y="820" width="60" height="30" as="geometry" />
        </mxCell>
        <mxCell id="3GCRCCxwuiFzwx2zmOPe-106" value="&lt;font style=&quot;font-size: 20px;&quot;&gt;R&lt;/font&gt;" style="text;html=1;strokeColor=none;fillColor=none;align=center;verticalAlign=middle;whiteSpace=wrap;rounded=0;" vertex="1" parent="1">
          <mxGeometry x="630" y="995" width="60" height="30" as="geometry" />
        </mxCell>
        <mxCell id="3GCRCCxwuiFzwx2zmOPe-107" value="5" style="text;html=1;strokeColor=none;fillColor=none;align=center;verticalAlign=middle;whiteSpace=wrap;rounded=0;" vertex="1" parent="1">
          <mxGeometry x="640" y="1005" width="60" height="30" as="geometry" />
        </mxCell>
        <mxCell id="3GCRCCxwuiFzwx2zmOPe-108" value="&lt;font style=&quot;font-size: 20px;&quot;&gt;R&lt;/font&gt;" style="text;html=1;strokeColor=none;fillColor=none;align=center;verticalAlign=middle;whiteSpace=wrap;rounded=0;" vertex="1" parent="1">
          <mxGeometry x="750" y="990" width="60" height="30" as="geometry" />
        </mxCell>
        <mxCell id="3GCRCCxwuiFzwx2zmOPe-109" value="6" style="text;html=1;strokeColor=none;fillColor=none;align=center;verticalAlign=middle;whiteSpace=wrap;rounded=0;" vertex="1" parent="1">
          <mxGeometry x="760" y="1000" width="60" height="30" as="geometry" />
        </mxCell>
        <mxCell id="3GCRCCxwuiFzwx2zmOPe-110" value="" style="endArrow=classic;html=1;rounded=0;strokeWidth=2;" edge="1" parent="1">
          <mxGeometry width="50" height="50" relative="1" as="geometry">
            <mxPoint x="820" y="945" as="sourcePoint" />
            <mxPoint x="820" y="1055" as="targetPoint" />
          </mxGeometry>
        </mxCell>
        <mxCell id="3GCRCCxwuiFzwx2zmOPe-111" value="&lt;font style=&quot;font-size: 20px;&quot;&gt;U&lt;/font&gt;" style="text;html=1;strokeColor=none;fillColor=none;align=center;verticalAlign=middle;whiteSpace=wrap;rounded=0;" vertex="1" parent="1">
          <mxGeometry x="800" y="985" width="60" height="30" as="geometry" />
        </mxCell>
        <mxCell id="3GCRCCxwuiFzwx2zmOPe-112" value="R6" style="text;html=1;strokeColor=none;fillColor=none;align=center;verticalAlign=middle;whiteSpace=wrap;rounded=0;" vertex="1" parent="1">
          <mxGeometry x="814" y="994" width="60" height="30" as="geometry" />
        </mxCell>
        <mxCell id="3GCRCCxwuiFzwx2zmOPe-113" value="&lt;font style=&quot;font-size: 20px;&quot;&gt;I&lt;/font&gt;" style="text;html=1;strokeColor=none;fillColor=none;align=center;verticalAlign=middle;whiteSpace=wrap;rounded=0;" vertex="1" parent="1">
          <mxGeometry x="670" y="880" width="60" height="30" as="geometry" />
        </mxCell>
        <mxCell id="3GCRCCxwuiFzwx2zmOPe-114" value="R6" style="text;html=1;strokeColor=none;fillColor=none;align=center;verticalAlign=middle;whiteSpace=wrap;rounded=0;" vertex="1" parent="1">
          <mxGeometry x="680" y="890" width="60" height="30" as="geometry" />
        </mxCell>
        <mxCell id="3GCRCCxwuiFzwx2zmOPe-115" value="" style="endArrow=block;html=1;rounded=0;strokeWidth=2;endFill=0;" edge="1" parent="1">
          <mxGeometry width="50" height="50" relative="1" as="geometry">
            <mxPoint x="660" y="920" as="sourcePoint" />
            <mxPoint x="750" y="920" as="targetPoint" />
          </mxGeometry>
        </mxCell>
        <mxCell id="3GCRCCxwuiFzwx2zmOPe-118" style="edgeStyle=orthogonalEdgeStyle;rounded=0;orthogonalLoop=1;jettySize=auto;html=1;exitX=0.58;exitY=0.935;exitDx=0;exitDy=0;exitPerimeter=0;endArrow=none;endFill=0;" edge="1" parent="1" source="3GCRCCxwuiFzwx2zmOPe-119">
          <mxGeometry relative="1" as="geometry">
            <mxPoint x="480" y="1620" as="targetPoint" />
            <Array as="points">
              <mxPoint x="251" y="1620" />
            </Array>
          </mxGeometry>
        </mxCell>
        <mxCell id="3GCRCCxwuiFzwx2zmOPe-119" value="" style="pointerEvents=1;verticalLabelPosition=bottom;shadow=0;dashed=0;align=center;html=1;verticalAlign=top;shape=mxgraph.electrical.signal_sources.dc_source_1;" vertex="1" parent="1">
          <mxGeometry x="210" y="1420" width="70" height="75" as="geometry" />
        </mxCell>
        <mxCell id="3GCRCCxwuiFzwx2zmOPe-120" value="" style="endArrow=none;html=1;rounded=0;" edge="1" parent="1">
          <mxGeometry width="50" height="50" relative="1" as="geometry">
            <mxPoint x="230" y="1450" as="sourcePoint" />
            <mxPoint x="270" y="1450" as="targetPoint" />
          </mxGeometry>
        </mxCell>
        <mxCell id="3GCRCCxwuiFzwx2zmOPe-121" value="" style="endArrow=none;html=1;rounded=0;" edge="1" parent="1">
          <mxGeometry width="50" height="50" relative="1" as="geometry">
            <mxPoint x="230" y="1470" as="sourcePoint" />
            <mxPoint x="270" y="1470" as="targetPoint" />
          </mxGeometry>
        </mxCell>
        <mxCell id="3GCRCCxwuiFzwx2zmOPe-122" value="" style="endArrow=classic;html=1;rounded=0;strokeWidth=2;" edge="1" parent="1">
          <mxGeometry width="50" height="50" relative="1" as="geometry">
            <mxPoint x="180" y="1422.5" as="sourcePoint" />
            <mxPoint x="180" y="1492.5" as="targetPoint" />
          </mxGeometry>
        </mxCell>
        <mxCell id="3GCRCCxwuiFzwx2zmOPe-123" value="&lt;font style=&quot;font-size: 20px;&quot;&gt;U&lt;/font&gt;" style="text;html=1;strokeColor=none;fillColor=none;align=center;verticalAlign=middle;whiteSpace=wrap;rounded=0;" vertex="1" parent="1">
          <mxGeometry x="130" y="1442.5" width="60" height="30" as="geometry" />
        </mxCell>
        <mxCell id="3GCRCCxwuiFzwx2zmOPe-155" style="edgeStyle=orthogonalEdgeStyle;rounded=0;orthogonalLoop=1;jettySize=auto;html=1;exitX=1;exitY=0.5;exitDx=0;exitDy=0;exitPerimeter=0;endArrow=none;endFill=0;" edge="1" parent="1" source="3GCRCCxwuiFzwx2zmOPe-124">
          <mxGeometry relative="1" as="geometry">
            <mxPoint x="526" y="1470" as="targetPoint" />
          </mxGeometry>
        </mxCell>
        <mxCell id="3GCRCCxwuiFzwx2zmOPe-124" value="" style="pointerEvents=1;verticalLabelPosition=bottom;shadow=0;dashed=0;align=center;html=1;verticalAlign=top;shape=mxgraph.electrical.resistors.resistor_1;" vertex="1" parent="1">
          <mxGeometry x="309.5" y="1340" width="100" height="20" as="geometry" />
        </mxCell>
        <mxCell id="3GCRCCxwuiFzwx2zmOPe-130" style="edgeStyle=orthogonalEdgeStyle;rounded=0;orthogonalLoop=1;jettySize=auto;html=1;exitX=0;exitY=0.5;exitDx=0;exitDy=0;exitPerimeter=0;endArrow=none;endFill=0;" edge="1" parent="1" source="3GCRCCxwuiFzwx2zmOPe-131">
          <mxGeometry relative="1" as="geometry">
            <mxPoint x="480" y="1620" as="targetPoint" />
            <Array as="points">
              <mxPoint x="526" y="1620" />
            </Array>
          </mxGeometry>
        </mxCell>
        <mxCell id="3GCRCCxwuiFzwx2zmOPe-154" style="edgeStyle=orthogonalEdgeStyle;rounded=0;orthogonalLoop=1;jettySize=auto;html=1;exitX=1;exitY=0.5;exitDx=0;exitDy=0;exitPerimeter=0;endArrow=none;endFill=0;" edge="1" parent="1" source="3GCRCCxwuiFzwx2zmOPe-131">
          <mxGeometry relative="1" as="geometry">
            <mxPoint x="526" y="1470" as="targetPoint" />
          </mxGeometry>
        </mxCell>
        <mxCell id="3GCRCCxwuiFzwx2zmOPe-131" value="" style="pointerEvents=1;verticalLabelPosition=bottom;shadow=0;dashed=0;align=center;html=1;verticalAlign=top;shape=mxgraph.electrical.resistors.resistor_1;rotation=-90;" vertex="1" parent="1">
          <mxGeometry x="476" y="1540" width="100" height="20" as="geometry" />
        </mxCell>
        <mxCell id="3GCRCCxwuiFzwx2zmOPe-133" style="edgeStyle=orthogonalEdgeStyle;rounded=0;orthogonalLoop=1;jettySize=auto;html=1;exitX=0;exitY=0.5;exitDx=0;exitDy=0;exitPerimeter=0;entryX=0.58;entryY=0.135;entryDx=0;entryDy=0;entryPerimeter=0;endArrow=none;endFill=0;" edge="1" parent="1" source="3GCRCCxwuiFzwx2zmOPe-124" target="3GCRCCxwuiFzwx2zmOPe-119">
          <mxGeometry relative="1" as="geometry" />
        </mxCell>
        <mxCell id="3GCRCCxwuiFzwx2zmOPe-135" style="edgeStyle=orthogonalEdgeStyle;rounded=0;orthogonalLoop=1;jettySize=auto;html=1;exitX=1;exitY=0.5;exitDx=0;exitDy=0;exitPerimeter=0;endArrow=oval;endFill=1;" edge="1" parent="1" source="3GCRCCxwuiFzwx2zmOPe-137">
          <mxGeometry relative="1" as="geometry">
            <mxPoint x="526" y="1470" as="targetPoint" />
            <Array as="points">
              <mxPoint x="646" y="1470" />
              <mxPoint x="526" y="1470" />
            </Array>
          </mxGeometry>
        </mxCell>
        <mxCell id="3GCRCCxwuiFzwx2zmOPe-136" style="edgeStyle=orthogonalEdgeStyle;rounded=0;orthogonalLoop=1;jettySize=auto;html=1;exitX=0;exitY=0.5;exitDx=0;exitDy=0;exitPerimeter=0;endArrow=oval;endFill=1;" edge="1" parent="1" source="3GCRCCxwuiFzwx2zmOPe-137">
          <mxGeometry relative="1" as="geometry">
            <mxPoint x="526" y="1620" as="targetPoint" />
            <Array as="points">
              <mxPoint x="646" y="1620" />
            </Array>
          </mxGeometry>
        </mxCell>
        <mxCell id="3GCRCCxwuiFzwx2zmOPe-137" value="" style="pointerEvents=1;verticalLabelPosition=bottom;shadow=0;dashed=0;align=center;html=1;verticalAlign=top;shape=mxgraph.electrical.resistors.resistor_1;rotation=-90;" vertex="1" parent="1">
          <mxGeometry x="596" y="1540" width="100" height="20" as="geometry" />
        </mxCell>
        <mxCell id="3GCRCCxwuiFzwx2zmOPe-138" value="&lt;font style=&quot;font-size: 20px;&quot;&gt;R&lt;/font&gt;" style="text;html=1;strokeColor=none;fillColor=none;align=center;verticalAlign=middle;whiteSpace=wrap;rounded=0;" vertex="1" parent="1">
          <mxGeometry x="324.5" y="1300" width="60" height="30" as="geometry" />
        </mxCell>
        <mxCell id="3GCRCCxwuiFzwx2zmOPe-139" value="1234" style="text;html=1;strokeColor=none;fillColor=none;align=center;verticalAlign=middle;whiteSpace=wrap;rounded=0;" vertex="1" parent="1">
          <mxGeometry x="345" y="1310" width="60" height="30" as="geometry" />
        </mxCell>
        <mxCell id="3GCRCCxwuiFzwx2zmOPe-144" value="&lt;font style=&quot;font-size: 20px;&quot;&gt;R&lt;/font&gt;" style="text;html=1;strokeColor=none;fillColor=none;align=center;verticalAlign=middle;whiteSpace=wrap;rounded=0;" vertex="1" parent="1">
          <mxGeometry x="516" y="1535" width="60" height="30" as="geometry" />
        </mxCell>
        <mxCell id="3GCRCCxwuiFzwx2zmOPe-145" value="5" style="text;html=1;strokeColor=none;fillColor=none;align=center;verticalAlign=middle;whiteSpace=wrap;rounded=0;" vertex="1" parent="1">
          <mxGeometry x="526" y="1545" width="60" height="30" as="geometry" />
        </mxCell>
        <mxCell id="3GCRCCxwuiFzwx2zmOPe-146" value="&lt;font style=&quot;font-size: 20px;&quot;&gt;R&lt;/font&gt;" style="text;html=1;strokeColor=none;fillColor=none;align=center;verticalAlign=middle;whiteSpace=wrap;rounded=0;" vertex="1" parent="1">
          <mxGeometry x="636" y="1530" width="60" height="30" as="geometry" />
        </mxCell>
        <mxCell id="3GCRCCxwuiFzwx2zmOPe-147" value="6" style="text;html=1;strokeColor=none;fillColor=none;align=center;verticalAlign=middle;whiteSpace=wrap;rounded=0;" vertex="1" parent="1">
          <mxGeometry x="646" y="1540" width="60" height="30" as="geometry" />
        </mxCell>
        <mxCell id="3GCRCCxwuiFzwx2zmOPe-148" value="" style="endArrow=classic;html=1;rounded=0;strokeWidth=2;" edge="1" parent="1">
          <mxGeometry width="50" height="50" relative="1" as="geometry">
            <mxPoint x="706" y="1485" as="sourcePoint" />
            <mxPoint x="706" y="1595" as="targetPoint" />
          </mxGeometry>
        </mxCell>
        <mxCell id="3GCRCCxwuiFzwx2zmOPe-149" value="&lt;font style=&quot;font-size: 20px;&quot;&gt;U&lt;/font&gt;" style="text;html=1;strokeColor=none;fillColor=none;align=center;verticalAlign=middle;whiteSpace=wrap;rounded=0;" vertex="1" parent="1">
          <mxGeometry x="686" y="1525" width="60" height="30" as="geometry" />
        </mxCell>
        <mxCell id="3GCRCCxwuiFzwx2zmOPe-150" value="R6" style="text;html=1;strokeColor=none;fillColor=none;align=center;verticalAlign=middle;whiteSpace=wrap;rounded=0;" vertex="1" parent="1">
          <mxGeometry x="700" y="1534" width="60" height="30" as="geometry" />
        </mxCell>
        <mxCell id="3GCRCCxwuiFzwx2zmOPe-151" value="&lt;font style=&quot;font-size: 20px;&quot;&gt;I&lt;/font&gt;" style="text;html=1;strokeColor=none;fillColor=none;align=center;verticalAlign=middle;whiteSpace=wrap;rounded=0;" vertex="1" parent="1">
          <mxGeometry x="556" y="1420" width="60" height="30" as="geometry" />
        </mxCell>
        <mxCell id="3GCRCCxwuiFzwx2zmOPe-152" value="R6" style="text;html=1;strokeColor=none;fillColor=none;align=center;verticalAlign=middle;whiteSpace=wrap;rounded=0;" vertex="1" parent="1">
          <mxGeometry x="566" y="1430" width="60" height="30" as="geometry" />
        </mxCell>
        <mxCell id="3GCRCCxwuiFzwx2zmOPe-153" value="" style="endArrow=block;html=1;rounded=0;strokeWidth=2;endFill=0;" edge="1" parent="1">
          <mxGeometry width="50" height="50" relative="1" as="geometry">
            <mxPoint x="546" y="1460" as="sourcePoint" />
            <mxPoint x="636" y="1460" as="targetPoint" />
          </mxGeometry>
        </mxCell>
      </root>
    </mxGraphModel>
  </diagram>
</mxfile>
